<?xml version="1.0" standalone="no"?>
<!DOCTYPE svg PUBLIC "-//W3C//DTD SVG 20010904//EN"
 "http://www.w3.org/TR/2001/REC-SVG-20010904/DTD/svg10.dtd">
<svg version="1.0" xmlns="http://www.w3.org/2000/svg"
 width="700.000000pt" height="700.000000pt" viewBox="0 0 700.000000 700.000000"
 preserveAspectRatio="xMidYMid meet">
<metadata>
Created by potrace 1.14, written by Peter Selinger 2001-2017
</metadata>
<g transform="translate(0.000000,700.000000) scale(0.100000,-0.100000)"
fill="#000000" stroke="none">
<path d="M4517 6124 c-1 -1 -38 -5 -82 -8 -282 -24 -603 -160 -825 -349 -119
-101 -404 -396 -418 -432 -59 -149 57 -311 214 -300 29 2 68 11 86 21 18 9
114 97 213 195 99 99 207 199 239 223 114 85 306 171 427 191 24 4 53 10 64
12 51 12 256 10 335 -4 596 -102 992 -649 905 -1248 -22 -152 -107 -353 -202
-479 -66 -89 -795 -821 -881 -885 -134 -101 -324 -181 -487 -206 -86 -13 -284
-13 -350 0 -201 40 -332 99 -498 223 -58 44 -120 83 -137 87 -121 27 -243 -47
-268 -162 -22 -98 12 -171 116 -256 379 -306 874 -416 1343 -297 211 54 443
170 594 299 50 43 603 590 771 763 381 393 523 887 410 1427 -63 297 -259 619
-500 820 -190 159 -373 255 -601 314 -104 27 -123 31 -215 43 -49 6 -247 13
-253 8z"/>
<path d="M2958 4595 c-2 -2 -30 -5 -63 -8 -258 -24 -536 -136 -760 -305 -84
-64 -822 -794 -910 -902 -172 -208 -286 -460 -330 -730 -19 -111 -24 -323 -11
-425 45 -348 194 -655 435 -895 111 -110 135 -130 239 -199 196 -130 426 -216
657 -246 81 -11 276 -13 346 -4 120 16 134 18 214 38 171 42 339 117 487 217
108 74 170 128 363 323 159 160 191 204 199 272 10 84 -58 192 -140 222 -51
19 -128 16 -174 -8 -19 -10 -116 -98 -215 -196 -99 -98 -200 -193 -225 -212
-190 -143 -409 -219 -640 -221 -149 -1 -213 7 -322 39 -369 107 -665 408 -759
773 -28 110 -34 161 -32 302 3 242 82 466 232 652 62 78 782 800 841 844 55
41 135 91 187 118 131 66 335 114 488 115 81 0 242 -24 321 -48 130 -41 294
-131 384 -210 117 -104 267 -92 349 29 30 45 34 58 34 114 0 51 -5 73 -26 108
-44 75 -212 200 -383 286 -82 41 -257 106 -310 115 -16 3 -49 10 -74 15 -74
17 -148 24 -277 27 -68 1 -124 1 -125 0z"/>
</g>
</svg>
